<svg width="357" height="75" viewBox="0 0 357 75" fill="none" xmlns="http://www.w3.org/2000/svg">
<g filter="url(#filter0_d_1133_69)">
<path d="M26.3592 15.5117H106.346L92.401 40.6414L85.3729 52.6974H18.104C4.18165 51.0691 3.15532 43.4597 4.38245 39.8586L13.8648 22.714C16.0959 18.1421 22.6778 15.5117 26.3592 15.5117Z" fill="#216900"/>
</g>
<rect x="140.848" y="14.5" width="216" height="40" rx="20" fill="#216900"/>
<g filter="url(#filter1_d_1133_69)">
<path d="M156.212 15.5117H113.485L92.624 52.854H146.729C154.137 52.854 158.443 49.0441 159.67 47.1391L169.71 28.8203C171.852 19.5513 161.604 16.0858 156.212 15.5117Z" fill="white"/>
</g>
<g filter="url(#filter2_d_1133_69)">
<mask id="path-4-inside-1_1133_69" fill="white">
<ellipse cx="100.497" cy="34.222" rx="11.7135" ry="8.22"/>
</mask>
<ellipse cx="100.497" cy="34.222" rx="11.7135" ry="8.22" fill="#216900"/>
<path d="M101.21 34.222C101.21 33.1694 101.529 32.3068 101.869 31.7432C102.029 31.477 102.181 31.2967 102.285 31.1888C102.389 31.0812 102.455 31.0343 102.461 31.0302C102.463 31.0288 102.298 31.1404 101.926 31.2507C101.564 31.3582 101.079 31.4419 100.497 31.4419V53.4419C105.717 53.4419 110.914 51.9746 115.098 49.0385C119.249 46.1255 123.21 41.054 123.21 34.222H101.21ZM100.497 31.4419C99.9147 31.4419 99.4295 31.3582 99.0673 31.2507C98.6956 31.1404 98.5307 31.0288 98.5327 31.0302C98.5384 31.0343 98.6046 31.0812 98.7082 31.1888C98.8121 31.2967 98.9643 31.477 99.1248 31.7432C99.4645 32.3068 99.7832 33.1694 99.7832 34.222H77.7832C77.7832 41.054 81.7443 46.1255 85.8953 49.0385C90.0793 51.9746 95.2761 53.4419 100.497 53.4419V31.4419ZM99.7832 34.222C99.7832 35.2745 99.4645 36.1371 99.1248 36.7007C98.9643 36.9669 98.8121 37.1472 98.7082 37.2551C98.6046 37.3628 98.5384 37.4096 98.5327 37.4137C98.5307 37.4151 98.6956 37.3035 99.0673 37.1932C99.4295 37.0857 99.9147 37.002 100.497 37.002V15.002C95.2761 15.002 90.0793 16.4693 85.8953 19.4054C81.7443 22.3184 77.7832 27.3899 77.7832 34.222H99.7832ZM100.497 37.002C101.079 37.002 101.564 37.0857 101.926 37.1932C102.298 37.3035 102.463 37.4151 102.461 37.4137C102.455 37.4096 102.389 37.3628 102.285 37.2551C102.181 37.1472 102.029 36.9669 101.869 36.7007C101.529 36.1371 101.21 35.2745 101.21 34.222H123.21C123.21 27.3899 119.249 22.3184 115.098 19.4054C110.914 16.4693 105.717 15.002 100.497 15.002V37.002Z" fill="#216900" mask="url(#path-4-inside-1_1133_69)"/>
</g>
<g filter="url(#filter3_d_1133_69)">
<path d="M100.609 34.6594L119.934 19.8695" stroke="black" stroke-width="2" stroke-linecap="round"/>
</g>
<g filter="url(#filter4_d_1133_69)">
<path d="M100.526 34.5934L88.3268 24.2433" stroke="white" stroke-width="2" stroke-linecap="round"/>
</g>
<g filter="url(#filter5_d_1133_69)">
<ellipse cx="100.497" cy="34.2224" rx="3.23516" ry="2.27029" fill="white"/>
</g>
<path d="M49.152 42.4517C49.6353 42.4517 50.0172 42.5871 50.2975 42.8577C50.5778 43.1187 50.718 43.4667 50.718 43.9017V46.5117H35.87V45.0617C35.87 44.7814 35.928 44.4817 36.044 44.1627C36.16 43.8437 36.363 43.5537 36.653 43.2927L42.743 37.1592C43.265 36.6372 43.7193 36.1394 44.106 35.6657C44.4927 35.1921 44.8117 34.7281 45.063 34.2737C45.3143 33.8097 45.5028 33.3506 45.6285 32.8962C45.7542 32.4322 45.817 31.9441 45.817 31.4317C45.817 30.5907 45.614 29.9479 45.208 29.5032C44.8117 29.0489 44.2027 28.8217 43.381 28.8217C42.714 28.8217 42.1485 29.0006 41.6845 29.3582C41.2302 29.7062 40.916 30.1412 40.742 30.6632C40.539 31.1949 40.2732 31.5477 39.9445 31.7217C39.6158 31.8957 39.147 31.9344 38.538 31.8377L36.16 31.4172C36.3147 30.3636 36.6095 29.4452 37.0445 28.6622C37.4892 27.8792 38.0353 27.2267 38.683 26.7047C39.3403 26.1827 40.0895 25.7961 40.9305 25.5447C41.7715 25.2837 42.6753 25.1532 43.642 25.1532C44.686 25.1532 45.6237 25.3079 46.455 25.6172C47.296 25.9169 48.0113 26.3374 48.601 26.8787C49.1907 27.4201 49.6402 28.0677 49.9495 28.8217C50.2685 29.5661 50.428 30.3877 50.428 31.2867C50.428 32.0601 50.3168 32.7754 50.0945 33.4327C49.8818 34.0901 49.587 34.7184 49.21 35.3177C48.833 35.9074 48.3932 36.4826 47.8905 37.0432C47.3975 37.5942 46.8707 38.1549 46.31 38.7252L42.1775 42.9592C42.7092 42.7949 43.236 42.6692 43.758 42.5822C44.28 42.4952 44.7633 42.4517 45.208 42.4517H49.152ZM61.8998 38.3047V32.7947C61.8998 32.4564 61.9094 32.0939 61.9288 31.7072C61.9578 31.3109 61.9964 30.9001 62.0448 30.4747L56.4623 38.3047H61.8998ZM67.9898 38.3047V40.8277C67.9898 41.0501 67.9124 41.2434 67.7578 41.4077C67.6128 41.5721 67.4001 41.6542 67.1198 41.6542H65.8148V46.5117H61.8998V41.6542H53.4028C53.1224 41.6542 52.8663 41.5672 52.6343 41.3932C52.4119 41.2192 52.2718 41.0017 52.2138 40.7407L51.7498 38.5222L61.5228 25.3852H65.8148V38.3047H67.9898Z" fill="white"/>
<path d="M143.994 25.3852V27.2702C143.994 27.8309 143.931 28.2852 143.805 28.6332C143.679 28.9716 143.559 29.2567 143.443 29.4887L136.106 45.0327C135.903 45.4387 135.613 45.7867 135.236 46.0767C134.868 46.3667 134.375 46.5117 133.757 46.5117H130.48L138.02 31.3882C138.242 30.9822 138.464 30.6149 138.687 30.2862C138.919 29.9479 139.175 29.6289 139.455 29.3292H130.161C130.025 29.3292 129.895 29.3051 129.769 29.2567C129.653 29.1987 129.547 29.1262 129.45 29.0392C129.363 28.9426 129.291 28.8362 129.233 28.7202C129.175 28.5946 129.146 28.4689 129.146 28.3432V25.3852H143.994Z" fill="#216900"/>
<g filter="url(#filter6_d_1133_69)">
<path d="M186.363 38.0724H182.108V42.6494H179.21V38.0724H174.978V35.5194H179.21V30.9654H182.108V35.5194H186.363V38.0724ZM191.631 32.8859C191.631 34.5573 192.406 35.3929 193.954 35.3929C194.713 35.3929 195.296 35.1668 195.702 34.7144C196.116 34.2544 196.323 33.6449 196.323 32.8859C196.323 32.4796 196.262 32.1231 196.139 31.8164C196.024 31.5021 195.859 31.2414 195.645 31.0344C195.438 30.8274 195.185 30.6703 194.886 30.5629C194.587 30.4556 194.261 30.4019 193.908 30.4019C193.548 30.4019 193.226 30.4671 192.942 30.5974C192.666 30.7201 192.429 30.8926 192.229 31.1149C192.038 31.3373 191.888 31.6018 191.781 31.9084C191.681 32.2074 191.631 32.5333 191.631 32.8859ZM194.483 38.1759C194.591 38.0456 194.694 37.9191 194.794 37.7964C194.893 37.6738 194.985 37.5511 195.07 37.4284C194.364 37.8041 193.563 37.9919 192.666 37.9919C192.122 37.9919 191.578 37.8961 191.033 37.7044C190.489 37.5051 189.994 37.2061 189.55 36.8074C189.113 36.4088 188.756 35.9066 188.48 35.3009C188.204 34.6953 188.066 33.9784 188.066 33.1504C188.066 32.3914 188.204 31.6746 188.48 30.9999C188.764 30.3253 189.163 29.7349 189.676 29.2289C190.198 28.7229 190.819 28.3243 191.539 28.0329C192.26 27.7339 193.065 27.5844 193.954 27.5844C194.859 27.5844 195.668 27.7224 196.381 27.9984C197.094 28.2744 197.696 28.6616 198.186 29.1599C198.685 29.6583 199.064 30.2524 199.325 30.9424C199.593 31.6248 199.727 32.3799 199.727 33.2079C199.727 34.3043 199.562 35.2856 199.233 36.1519C198.903 37.0183 198.462 37.8348 197.91 38.6014L194.299 43.7304C194.138 43.9528 193.893 44.1406 193.563 44.2939C193.241 44.4473 192.873 44.5239 192.459 44.5239H189.17L194.483 38.1759ZM212.77 41.9479V44.5239H203.225V41.9479H206.445V33.4954C206.445 33.2808 206.449 33.0661 206.457 32.8514C206.464 32.6291 206.476 32.4068 206.491 32.1844L204.582 33.7714C204.413 33.9018 204.245 33.9823 204.076 34.0129C203.915 34.0359 203.762 34.0359 203.616 34.0129C203.47 33.9823 203.34 33.9324 203.225 33.8634C203.11 33.7868 203.026 33.7101 202.972 33.6334L201.845 32.1384L207.066 27.7569H210.01V41.9479H212.77ZM226.71 27.7684V29.2634C226.71 29.7081 226.66 30.0684 226.56 30.3444C226.461 30.6128 226.365 30.8389 226.273 31.0229L220.454 43.3509C220.293 43.6729 220.063 43.9489 219.764 44.1789C219.473 44.4089 219.082 44.5239 218.591 44.5239H215.992L221.972 32.5294C222.148 32.2074 222.325 31.9161 222.501 31.6554C222.685 31.3871 222.888 31.1341 223.11 30.8964H215.739C215.632 30.8964 215.528 30.8773 215.428 30.8389C215.336 30.7929 215.252 30.7354 215.175 30.6664C215.106 30.5898 215.049 30.5054 215.003 30.4134C214.957 30.3138 214.934 30.2141 214.934 30.1144V27.7684H226.71ZM234.037 42.0169C234.436 42.0169 234.781 41.9556 235.072 41.8329C235.364 41.7103 235.601 41.5454 235.785 41.3384C235.977 41.1238 236.115 40.8746 236.199 40.5909C236.291 40.2996 236.337 39.9891 236.337 39.6594C236.337 39.2991 236.299 38.9694 236.222 38.6704C236.146 38.3714 236.019 38.1184 235.843 37.9114C235.666 37.6968 235.429 37.5319 235.13 37.4169C234.838 37.2943 234.474 37.2329 234.037 37.2329C233.6 37.2329 233.232 37.2943 232.933 37.4169C232.642 37.5319 232.408 37.6968 232.232 37.9114C232.055 38.1184 231.929 38.3714 231.852 38.6704C231.776 38.9694 231.737 39.2991 231.737 39.6594C231.737 39.9891 231.779 40.2996 231.864 40.5909C231.956 40.8746 232.094 41.1238 232.278 41.3384C232.469 41.5454 232.707 41.7103 232.991 41.8329C233.282 41.9556 233.631 42.0169 234.037 42.0169ZM234.037 30.1834C233.677 30.1834 233.374 30.2409 233.129 30.3559C232.883 30.4709 232.68 30.6243 232.519 30.8159C232.366 30.9999 232.255 31.2146 232.186 31.4599C232.117 31.7053 232.082 31.9583 232.082 32.2189C232.082 32.5103 232.109 32.7939 232.163 33.0699C232.216 33.3459 232.316 33.5913 232.462 33.8059C232.607 34.0206 232.807 34.1931 233.06 34.3234C233.313 34.4538 233.639 34.5189 234.037 34.5189C234.436 34.5189 234.762 34.4538 235.015 34.3234C235.268 34.1931 235.467 34.0206 235.613 33.8059C235.758 33.5913 235.858 33.3459 235.912 33.0699C235.965 32.7939 235.992 32.5103 235.992 32.2189C235.992 31.9583 235.958 31.7053 235.889 31.4599C235.82 31.2146 235.705 30.9999 235.544 30.8159C235.39 30.6243 235.187 30.4709 234.934 30.3559C234.689 30.2409 234.39 30.1834 234.037 30.1834ZM237.2 35.7839C237.698 35.9603 238.124 36.1788 238.476 36.4394C238.837 36.7001 239.128 36.9991 239.35 37.3364C239.58 37.6738 239.749 38.0456 239.856 38.4519C239.964 38.8506 240.017 39.2761 240.017 39.7284C240.017 40.4798 239.872 41.1621 239.58 41.7754C239.297 42.3888 238.89 42.9139 238.361 43.3509C237.84 43.7803 237.211 44.1138 236.475 44.3514C235.739 44.5891 234.927 44.7079 234.037 44.7079C233.148 44.7079 232.335 44.5891 231.599 44.3514C230.863 44.1138 230.231 43.7803 229.702 43.3509C229.18 42.9139 228.774 42.3888 228.483 41.7754C228.199 41.1621 228.057 40.4798 228.057 39.7284C228.057 39.2761 228.111 38.8506 228.218 38.4519C228.326 38.0456 228.49 37.6738 228.713 37.3364C228.943 36.9991 229.234 36.7001 229.587 36.4394C229.947 36.1788 230.376 35.9603 230.875 35.7839C230.116 35.4389 229.548 34.9636 229.173 34.3579C228.797 33.7446 228.609 33.0086 228.609 32.1499C228.609 31.4983 228.743 30.8964 229.012 30.3444C229.28 29.7848 229.656 29.3018 230.139 28.8954C230.622 28.4891 231.193 28.1709 231.852 27.9409C232.519 27.7033 233.248 27.5844 234.037 27.5844C234.827 27.5844 235.551 27.7033 236.211 27.9409C236.878 28.1709 237.453 28.4891 237.936 28.8954C238.419 29.3018 238.794 29.7848 239.063 30.3444C239.331 30.8964 239.465 31.4983 239.465 32.1499C239.465 33.0086 239.277 33.7446 238.902 34.3579C238.526 34.9636 237.959 35.4389 237.2 35.7839ZM247.356 41.8904C247.724 41.8904 248.065 41.8214 248.379 41.6834C248.701 41.5454 248.977 41.3576 249.207 41.1199C249.437 40.8746 249.618 40.5909 249.748 40.2689C249.886 39.9393 249.955 39.5828 249.955 39.1994C249.955 38.7701 249.89 38.3868 249.759 38.0494C249.637 37.7121 249.46 37.4284 249.23 37.1984C249 36.9684 248.721 36.7921 248.391 36.6694C248.069 36.5468 247.709 36.4854 247.31 36.4854C246.95 36.4854 246.62 36.5506 246.321 36.6809C246.022 36.8036 245.761 36.9838 245.539 37.2214C245.324 37.4591 245.156 37.7428 245.033 38.0724C244.91 38.4021 244.849 38.7739 244.849 39.1879C244.849 39.6019 244.899 39.9738 244.998 40.3034C245.098 40.6331 245.251 40.9168 245.458 41.1544C245.665 41.3921 245.926 41.5761 246.24 41.7064C246.555 41.8291 246.927 41.8904 247.356 41.8904ZM246.781 34.2084C247.318 34.0091 247.916 33.9094 248.575 33.9094C249.181 33.9094 249.779 34.0091 250.369 34.2084C250.959 34.4078 251.488 34.7144 251.956 35.1284C252.424 35.5424 252.799 36.0676 253.083 36.7039C253.374 37.3326 253.52 38.0763 253.52 38.9349C253.52 39.7169 253.374 40.4606 253.083 41.1659C252.792 41.8636 252.378 42.4769 251.841 43.0059C251.312 43.5273 250.672 43.9413 249.92 44.2479C249.169 44.5546 248.337 44.7079 247.425 44.7079C246.49 44.7079 245.65 44.5623 244.906 44.2709C244.163 43.9719 243.53 43.5579 243.009 43.0289C242.495 42.4999 242.1 41.8674 241.824 41.1314C241.556 40.3954 241.422 39.5866 241.422 38.7049C241.422 37.0566 242.058 35.3814 243.331 33.6794L247.103 28.5849C247.279 28.3626 247.532 28.1709 247.862 28.0099C248.199 27.8489 248.583 27.7684 249.012 27.7684H252.186L247.218 33.7024L246.781 34.2084ZM266.931 36.1404C266.931 37.6048 266.774 38.8736 266.459 39.9469C266.145 41.0203 265.708 41.9096 265.148 42.6149C264.596 43.3203 263.937 43.8454 263.17 44.1904C262.411 44.5354 261.587 44.7079 260.698 44.7079C259.808 44.7079 258.984 44.5354 258.225 44.1904C257.474 43.8454 256.822 43.3203 256.27 42.6149C255.718 41.9096 255.285 41.0203 254.971 39.9469C254.664 38.8736 254.511 37.6048 254.511 36.1404C254.511 34.6761 254.664 33.4073 254.971 32.3339C255.285 31.2606 255.718 30.3713 256.27 29.6659C256.822 28.9606 257.474 28.4393 258.225 28.1019C258.984 27.7569 259.808 27.5844 260.698 27.5844C261.587 27.5844 262.411 27.7569 263.17 28.1019C263.937 28.4393 264.596 28.9606 265.148 29.6659C265.708 30.3713 266.145 31.2606 266.459 32.3339C266.774 33.4073 266.931 34.6761 266.931 36.1404ZM263.251 36.1404C263.251 34.9828 263.178 34.0359 263.032 33.2999C262.887 32.5563 262.691 31.9736 262.446 31.5519C262.208 31.1303 261.936 30.8428 261.629 30.6894C261.323 30.5284 261.012 30.4479 260.698 30.4479C260.383 30.4479 260.073 30.5284 259.766 30.6894C259.467 30.8428 259.199 31.1303 258.961 31.5519C258.731 31.9736 258.543 32.5563 258.398 33.2999C258.26 34.0359 258.191 34.9828 258.191 36.1404C258.191 37.3058 258.26 38.2564 258.398 38.9924C258.543 39.7284 258.731 40.3111 258.961 40.7404C259.199 41.1621 259.467 41.4534 259.766 41.6144C260.073 41.7678 260.383 41.8444 260.698 41.8444C261.012 41.8444 261.323 41.7678 261.629 41.6144C261.936 41.4534 262.208 41.1621 262.446 40.7404C262.691 40.3111 262.887 39.7284 263.032 38.9924C263.178 38.2564 263.251 37.3058 263.251 36.1404ZM274.04 41.8904C274.408 41.8904 274.749 41.8214 275.063 41.6834C275.385 41.5454 275.661 41.3576 275.891 41.1199C276.121 40.8746 276.301 40.5909 276.432 40.2689C276.57 39.9393 276.639 39.5828 276.639 39.1994C276.639 38.7701 276.573 38.3868 276.443 38.0494C276.32 37.7121 276.144 37.4284 275.914 37.1984C275.684 36.9684 275.404 36.7921 275.075 36.6694C274.753 36.5468 274.392 36.4854 273.994 36.4854C273.633 36.4854 273.304 36.5506 273.005 36.6809C272.706 36.8036 272.445 36.9838 272.223 37.2214C272.008 37.4591 271.839 37.7428 271.717 38.0724C271.594 38.4021 271.533 38.7739 271.533 39.1879C271.533 39.6019 271.582 39.9738 271.682 40.3034C271.782 40.6331 271.935 40.9168 272.142 41.1544C272.349 41.3921 272.61 41.5761 272.924 41.7064C273.238 41.8291 273.61 41.8904 274.04 41.8904ZM273.465 34.2084C274.001 34.0091 274.599 33.9094 275.259 33.9094C275.864 33.9094 276.462 34.0091 277.053 34.2084C277.643 34.4078 278.172 34.7144 278.64 35.1284C279.107 35.5424 279.483 36.0676 279.767 36.7039C280.058 37.3326 280.204 38.0763 280.204 38.9349C280.204 39.7169 280.058 40.4606 279.767 41.1659C279.475 41.8636 279.061 42.4769 278.525 43.0059C277.996 43.5273 277.355 43.9413 276.604 44.2479C275.853 44.5546 275.021 44.7079 274.109 44.7079C273.173 44.7079 272.334 44.5623 271.59 44.2709C270.846 43.9719 270.214 43.5579 269.693 43.0289C269.179 42.4999 268.784 41.8674 268.508 41.1314C268.24 40.3954 268.106 39.5866 268.106 38.7049C268.106 37.0566 268.742 35.3814 270.015 33.6794L273.787 28.5849C273.963 28.3626 274.216 28.1709 274.546 28.0099C274.883 27.8489 275.266 27.7684 275.696 27.7684H278.87L273.902 33.7024L273.465 34.2084ZM287.381 41.8904C287.749 41.8904 288.091 41.8214 288.405 41.6834C288.727 41.5454 289.003 41.3576 289.233 41.1199C289.463 40.8746 289.643 40.5909 289.773 40.2689C289.911 39.9393 289.98 39.5828 289.98 39.1994C289.98 38.7701 289.915 38.3868 289.785 38.0494C289.662 37.7121 289.486 37.4284 289.256 37.1984C289.026 36.9684 288.746 36.7921 288.416 36.6694C288.094 36.5468 287.734 36.4854 287.335 36.4854C286.975 36.4854 286.645 36.5506 286.346 36.6809C286.047 36.8036 285.787 36.9838 285.564 37.2214C285.35 37.4591 285.181 37.7428 285.058 38.0724C284.936 38.4021 284.874 38.7739 284.874 39.1879C284.874 39.6019 284.924 39.9738 285.024 40.3034C285.124 40.6331 285.277 40.9168 285.484 41.1544C285.691 41.3921 285.952 41.5761 286.266 41.7064C286.58 41.8291 286.952 41.8904 287.381 41.8904ZM286.806 34.2084C287.343 34.0091 287.941 33.9094 288.6 33.9094C289.206 33.9094 289.804 34.0091 290.394 34.2084C290.985 34.4078 291.514 34.7144 291.981 35.1284C292.449 35.5424 292.825 36.0676 293.108 36.7039C293.4 37.3326 293.545 38.0763 293.545 38.9349C293.545 39.7169 293.4 40.4606 293.108 41.1659C292.817 41.8636 292.403 42.4769 291.866 43.0059C291.337 43.5273 290.697 43.9413 289.946 44.2479C289.195 44.5546 288.363 44.7079 287.45 44.7079C286.515 44.7079 285.676 44.5623 284.932 44.2709C284.188 43.9719 283.556 43.5579 283.034 43.0289C282.521 42.4999 282.126 41.8674 281.85 41.1314C281.582 40.3954 281.447 39.5866 281.447 38.7049C281.447 37.0566 282.084 35.3814 283.356 33.6794L287.128 28.5849C287.305 28.3626 287.558 28.1709 287.887 28.0099C288.225 27.8489 288.608 27.7684 289.037 27.7684H292.211L287.243 33.7024L286.806 34.2084ZM295.088 32.5524C295.211 31.7168 295.445 30.9884 295.79 30.3674C296.142 29.7464 296.576 29.2289 297.089 28.8149C297.611 28.4009 298.205 28.0943 298.872 27.8949C299.539 27.6879 300.256 27.5844 301.022 27.5844C301.85 27.5844 302.586 27.7033 303.23 27.9409C303.874 28.1709 304.419 28.4853 304.863 28.8839C305.308 29.2826 305.645 29.7464 305.875 30.2754C306.105 30.7968 306.22 31.3488 306.22 31.9314C306.22 32.4604 306.167 32.9281 306.059 33.3344C305.952 33.7331 305.791 34.0819 305.576 34.3809C305.369 34.6723 305.109 34.9214 304.794 35.1284C304.488 35.3278 304.135 35.4964 303.736 35.6344C305.592 36.2861 306.519 37.5511 306.519 39.4294C306.519 40.3188 306.358 41.0931 306.036 41.7524C305.714 42.4118 305.281 42.9599 304.737 43.3969C304.2 43.8339 303.575 44.1636 302.862 44.3859C302.149 44.6006 301.406 44.7079 300.631 44.7079C299.834 44.7079 299.125 44.6236 298.504 44.4549C297.883 44.2786 297.331 44.0103 296.848 43.6499C296.365 43.2819 295.939 42.8143 295.571 42.2469C295.211 41.6796 294.897 41.0049 294.628 40.2229L296.215 39.5789C296.629 39.4179 297.013 39.3758 297.365 39.4524C297.718 39.5291 297.971 39.7054 298.124 39.9814C298.469 40.6178 298.833 41.0816 299.217 41.3729C299.608 41.6566 300.064 41.7984 300.585 41.7984C300.984 41.7984 301.329 41.7333 301.62 41.6029C301.919 41.4649 302.165 41.2924 302.356 41.0854C302.556 40.8708 302.705 40.6293 302.805 40.3609C302.904 40.0926 302.954 39.8204 302.954 39.5444C302.954 39.1841 302.927 38.8621 302.874 38.5784C302.828 38.2871 302.69 38.0379 302.46 37.8309C302.23 37.6239 301.881 37.4668 301.413 37.3594C300.953 37.2444 300.309 37.1869 299.481 37.1869V34.7259C300.179 34.7259 300.742 34.6723 301.172 34.5649C301.601 34.4576 301.931 34.3119 302.161 34.1279C302.398 33.9363 302.556 33.7063 302.632 33.4379C302.709 33.1696 302.747 32.8744 302.747 32.5524C302.747 31.8931 302.586 31.3871 302.264 31.0344C301.95 30.6741 301.467 30.4939 300.815 30.4939C300.286 30.4939 299.838 30.6358 299.47 30.9194C299.109 31.1954 298.86 31.5404 298.722 31.9544C298.561 32.3761 298.35 32.6559 298.09 32.7939C297.829 32.9319 297.457 32.9626 296.974 32.8859L295.088 32.5524ZM308.43 32.5524C308.553 31.7168 308.786 30.9884 309.131 30.3674C309.484 29.7464 309.917 29.2289 310.431 28.8149C310.952 28.4009 311.546 28.0943 312.213 27.8949C312.88 27.6879 313.597 27.5844 314.364 27.5844C315.192 27.5844 315.928 27.7033 316.572 27.9409C317.216 28.1709 317.76 28.4853 318.205 28.8839C318.65 29.2826 318.987 29.7464 319.217 30.2754C319.447 30.7968 319.562 31.3488 319.562 31.9314C319.562 32.4604 319.508 32.9281 319.401 33.3344C319.294 33.7331 319.133 34.0819 318.918 34.3809C318.711 34.6723 318.45 34.9214 318.136 35.1284C317.829 35.3278 317.477 35.4964 317.078 35.6344C318.933 36.2861 319.861 37.5511 319.861 39.4294C319.861 40.3188 319.7 41.0931 319.378 41.7524C319.056 42.4118 318.623 42.9599 318.078 43.3969C317.542 43.8339 316.917 44.1636 316.204 44.3859C315.491 44.6006 314.747 44.7079 313.973 44.7079C313.176 44.7079 312.466 44.6236 311.845 44.4549C311.224 44.2786 310.672 44.0103 310.189 43.6499C309.706 43.2819 309.281 42.8143 308.913 42.2469C308.553 41.6796 308.238 41.0049 307.97 40.2229L309.557 39.5789C309.971 39.4179 310.354 39.3758 310.707 39.4524C311.06 39.5291 311.313 39.7054 311.466 39.9814C311.811 40.6178 312.175 41.0816 312.558 41.3729C312.949 41.6566 313.406 41.7984 313.927 41.7984C314.326 41.7984 314.671 41.7333 314.962 41.6029C315.261 41.4649 315.506 41.2924 315.698 41.0854C315.897 40.8708 316.047 40.6293 316.146 40.3609C316.246 40.0926 316.296 39.8204 316.296 39.5444C316.296 39.1841 316.269 38.8621 316.215 38.5784C316.169 38.2871 316.031 38.0379 315.801 37.8309C315.571 37.6239 315.223 37.4668 314.755 37.3594C314.295 37.2444 313.651 37.1869 312.823 37.1869V34.7259C313.521 34.7259 314.084 34.6723 314.513 34.5649C314.943 34.4576 315.272 34.3119 315.502 34.1279C315.74 33.9363 315.897 33.7063 315.974 33.4379C316.051 33.1696 316.089 32.8744 316.089 32.5524C316.089 31.8931 315.928 31.3871 315.606 31.0344C315.292 30.6741 314.809 30.4939 314.157 30.4939C313.628 30.4939 313.179 30.6358 312.811 30.9194C312.451 31.1954 312.202 31.5404 312.064 31.9544C311.903 32.3761 311.692 32.6559 311.431 32.7939C311.171 32.9319 310.799 32.9626 310.316 32.8859L308.43 32.5524ZM325.049 32.8859C325.049 34.5573 325.824 35.3929 327.372 35.3929C328.131 35.3929 328.714 35.1668 329.12 34.7144C329.534 34.2544 329.741 33.6449 329.741 32.8859C329.741 32.4796 329.68 32.1231 329.557 31.8164C329.442 31.5021 329.277 31.2414 329.063 31.0344C328.856 30.8274 328.603 30.6703 328.304 30.5629C328.005 30.4556 327.679 30.4019 327.326 30.4019C326.966 30.4019 326.644 30.4671 326.36 30.5974C326.084 30.7201 325.847 30.8926 325.647 31.1149C325.456 31.3373 325.306 31.6018 325.199 31.9084C325.099 32.2074 325.049 32.5333 325.049 32.8859ZM327.901 38.1759C328.009 38.0456 328.112 37.9191 328.212 37.7964C328.311 37.6738 328.403 37.5511 328.488 37.4284C327.782 37.8041 326.981 37.9919 326.084 37.9919C325.54 37.9919 324.996 37.8961 324.451 37.7044C323.907 37.5051 323.412 37.2061 322.968 36.8074C322.531 36.4088 322.174 35.9066 321.898 35.3009C321.622 34.6953 321.484 33.9784 321.484 33.1504C321.484 32.3914 321.622 31.6746 321.898 30.9999C322.182 30.3253 322.581 29.7349 323.094 29.2289C323.616 28.7229 324.237 28.3243 324.957 28.0329C325.678 27.7339 326.483 27.5844 327.372 27.5844C328.277 27.5844 329.086 27.7224 329.799 27.9984C330.512 28.2744 331.114 28.6616 331.604 29.1599C332.103 29.6583 332.482 30.2524 332.743 30.9424C333.011 31.6248 333.145 32.3799 333.145 33.2079C333.145 34.3043 332.98 35.2856 332.651 36.1519C332.321 37.0183 331.88 37.8348 331.328 38.6014L327.717 43.7304C327.556 43.9528 327.311 44.1406 326.981 44.2939C326.659 44.4473 326.291 44.5239 325.877 44.5239H322.588L327.901 38.1759ZM338.391 32.8859C338.391 34.5573 339.165 35.3929 340.714 35.3929C341.473 35.3929 342.056 35.1668 342.462 34.7144C342.876 34.2544 343.083 33.6449 343.083 32.8859C343.083 32.4796 343.022 32.1231 342.899 31.8164C342.784 31.5021 342.619 31.2414 342.405 31.0344C342.198 30.8274 341.945 30.6703 341.646 30.5629C341.347 30.4556 341.021 30.4019 340.668 30.4019C340.308 30.4019 339.986 30.4671 339.702 30.5974C339.426 30.7201 339.188 30.8926 338.989 31.1149C338.797 31.3373 338.648 31.6018 338.541 31.9084C338.441 32.2074 338.391 32.5333 338.391 32.8859ZM341.243 38.1759C341.35 38.0456 341.454 37.9191 341.554 37.7964C341.653 37.6738 341.745 37.5511 341.83 37.4284C341.124 37.8041 340.323 37.9919 339.426 37.9919C338.882 37.9919 338.337 37.8961 337.793 37.7044C337.249 37.5051 336.754 37.2061 336.31 36.8074C335.873 36.4088 335.516 35.9066 335.24 35.3009C334.964 34.6953 334.826 33.9784 334.826 33.1504C334.826 32.3914 334.964 31.6746 335.24 30.9999C335.524 30.3253 335.922 29.7349 336.436 29.2289C336.957 28.7229 337.578 28.3243 338.299 28.0329C339.02 27.7339 339.825 27.5844 340.714 27.5844C341.619 27.5844 342.428 27.7224 343.141 27.9984C343.854 28.2744 344.455 28.6616 344.946 29.1599C345.444 29.6583 345.824 30.2524 346.085 30.9424C346.353 31.6248 346.487 32.3799 346.487 33.2079C346.487 34.3043 346.322 35.2856 345.993 36.1519C345.663 37.0183 345.222 37.8348 344.67 38.6014L341.059 43.7304C340.898 43.9528 340.653 44.1406 340.323 44.2939C340.001 44.4473 339.633 44.5239 339.219 44.5239H335.93L341.243 38.1759Z" fill="white"/>
</g>
<defs>
<filter id="filter0_d_1133_69" x="0" y="15.5117" width="110.346" height="45.1855" filterUnits="userSpaceOnUse" color-interpolation-filters="sRGB">
<feFlood flood-opacity="0" result="BackgroundImageFix"/>
<feColorMatrix in="SourceAlpha" type="matrix" values="0 0 0 0 0 0 0 0 0 0 0 0 0 0 0 0 0 0 127 0" result="hardAlpha"/>
<feOffset dy="4"/>
<feGaussianBlur stdDeviation="2"/>
<feComposite in2="hardAlpha" operator="out"/>
<feColorMatrix type="matrix" values="0 0 0 0 0 0 0 0 0 0 0 0 0 0 0 0 0 0 0.25 0"/>
<feBlend mode="normal" in2="BackgroundImageFix" result="effect1_dropShadow_1133_69"/>
<feBlend mode="normal" in="SourceGraphic" in2="effect1_dropShadow_1133_69" result="shape"/>
</filter>
<filter id="filter1_d_1133_69" x="88.624" y="15.5117" width="85.376" height="45.3423" filterUnits="userSpaceOnUse" color-interpolation-filters="sRGB">
<feFlood flood-opacity="0" result="BackgroundImageFix"/>
<feColorMatrix in="SourceAlpha" type="matrix" values="0 0 0 0 0 0 0 0 0 0 0 0 0 0 0 0 0 0 127 0" result="hardAlpha"/>
<feOffset dy="4"/>
<feGaussianBlur stdDeviation="2"/>
<feComposite in2="hardAlpha" operator="out"/>
<feColorMatrix type="matrix" values="0 0 0 0 0 0 0 0 0 0 0 0 0 0 0 0 0 0 0.25 0"/>
<feBlend mode="normal" in2="BackgroundImageFix" result="effect1_dropShadow_1133_69"/>
<feBlend mode="normal" in="SourceGraphic" in2="effect1_dropShadow_1133_69" result="shape"/>
</filter>
<filter id="filter2_d_1133_69" x="66.7832" y="8.00195" width="67.4268" height="60.4399" filterUnits="userSpaceOnUse" color-interpolation-filters="sRGB">
<feFlood flood-opacity="0" result="BackgroundImageFix"/>
<feColorMatrix in="SourceAlpha" type="matrix" values="0 0 0 0 0 0 0 0 0 0 0 0 0 0 0 0 0 0 127 0" result="hardAlpha"/>
<feOffset dy="4"/>
<feGaussianBlur stdDeviation="11"/>
<feComposite in2="hardAlpha" operator="out"/>
<feColorMatrix type="matrix" values="0 0 0 0 0 0 0 0 0 0 0 0 0 0 0 0 0 0 0.25 0"/>
<feBlend mode="normal" in2="BackgroundImageFix" result="effect1_dropShadow_1133_69"/>
<feBlend mode="normal" in="SourceGraphic" in2="effect1_dropShadow_1133_69" result="shape"/>
</filter>
<filter id="filter3_d_1133_69" x="95.5249" y="18.9609" width="29.4922" height="24.6074" filterUnits="userSpaceOnUse" color-interpolation-filters="sRGB">
<feFlood flood-opacity="0" result="BackgroundImageFix"/>
<feColorMatrix in="SourceAlpha" type="matrix" values="0 0 0 0 0 0 0 0 0 0 0 0 0 0 0 0 0 0 127 0" result="hardAlpha"/>
<feOffset dy="4"/>
<feGaussianBlur stdDeviation="2"/>
<feComposite in2="hardAlpha" operator="out"/>
<feColorMatrix type="matrix" values="0 0 0 0 0 0 0 0 0 0 0 0 0 0 0 0 0 0 0.25 0"/>
<feBlend mode="normal" in2="BackgroundImageFix" result="effect1_dropShadow_1133_69"/>
<feBlend mode="normal" in="SourceGraphic" in2="effect1_dropShadow_1133_69" result="shape"/>
</filter>
<filter id="filter4_d_1133_69" x="60.2031" y="0.384766" width="68.4468" height="66.0674" filterUnits="userSpaceOnUse" color-interpolation-filters="sRGB">
<feFlood flood-opacity="0" result="BackgroundImageFix"/>
<feColorMatrix in="SourceAlpha" type="matrix" values="0 0 0 0 0 0 0 0 0 0 0 0 0 0 0 0 0 0 127 0" result="hardAlpha"/>
<feOffset dy="4"/>
<feGaussianBlur stdDeviation="13.5"/>
<feComposite in2="hardAlpha" operator="out"/>
<feColorMatrix type="matrix" values="0 0 0 0 0 0 0 0 0 0 0 0 0 0 0 0 0 0 0.25 0"/>
<feBlend mode="normal" in2="BackgroundImageFix" result="effect1_dropShadow_1133_69"/>
<feBlend mode="normal" in="SourceGraphic" in2="effect1_dropShadow_1133_69" result="shape"/>
</filter>
<filter id="filter5_d_1133_69" x="63.2617" y="1.95215" width="74.4702" height="72.5405" filterUnits="userSpaceOnUse" color-interpolation-filters="sRGB">
<feFlood flood-opacity="0" result="BackgroundImageFix"/>
<feColorMatrix in="SourceAlpha" type="matrix" values="0 0 0 0 0 0 0 0 0 0 0 0 0 0 0 0 0 0 127 0" result="hardAlpha"/>
<feOffset dy="4"/>
<feGaussianBlur stdDeviation="17"/>
<feComposite in2="hardAlpha" operator="out"/>
<feColorMatrix type="matrix" values="0 0 0 0 0 0 0 0 0 0 0 0 0 0 0 0 0 0 0.25 0"/>
<feBlend mode="normal" in2="BackgroundImageFix" result="effect1_dropShadow_1133_69"/>
<feBlend mode="normal" in="SourceGraphic" in2="effect1_dropShadow_1133_69" result="shape"/>
</filter>
<filter id="filter6_d_1133_69" x="164.978" y="21.5845" width="191.51" height="37.1235" filterUnits="userSpaceOnUse" color-interpolation-filters="sRGB">
<feFlood flood-opacity="0" result="BackgroundImageFix"/>
<feColorMatrix in="SourceAlpha" type="matrix" values="0 0 0 0 0 0 0 0 0 0 0 0 0 0 0 0 0 0 127 0" result="hardAlpha"/>
<feOffset dy="4"/>
<feGaussianBlur stdDeviation="5"/>
<feComposite in2="hardAlpha" operator="out"/>
<feColorMatrix type="matrix" values="0 0 0 0 0 0 0 0 0 0 0 0 0 0 0 0 0 0 0.25 0"/>
<feBlend mode="normal" in2="BackgroundImageFix" result="effect1_dropShadow_1133_69"/>
<feBlend mode="normal" in="SourceGraphic" in2="effect1_dropShadow_1133_69" result="shape"/>
</filter>
</defs>
</svg>
