<svg width="45" height="45" viewBox="0 0 45 45" fill="none" xmlns="http://www.w3.org/2000/svg">
<ellipse cx="22.1398" cy="22.0725" rx="22.0099" ry="22.01" fill="#E6F5E0"/>
<rect x="12.4551" y="4.46436" width="20.1234" height="35.216" fill="black"/>
<rect x="14.2158" y="5.34473" width="16.7275" height="30.814" fill="white"/>
<ellipse cx="23.0196" cy="37.92" rx="1.76079" ry="1.7608" fill="white"/>
<path d="M21.4325 32.4638C21.8231 32.8543 22.4562 32.8543 22.8468 32.4638L29.2107 26.0998C29.6012 25.7093 29.6012 25.0761 29.2107 24.6856C28.8202 24.2951 28.187 24.2951 27.7965 24.6856L22.1396 30.3425L16.4828 24.6856C16.0923 24.2951 15.4591 24.2951 15.0686 24.6856C14.6781 25.0761 14.6781 25.7093 15.0686 26.0998L21.4325 32.4638ZM21.1396 7.10547V31.7567H23.1396V7.10547H21.1396Z" fill="black"/>
</svg>
